<?xml version="1.0" encoding="utf-8"?>
<!-- Generator: Adobe Illustrator 24.3.0, SVG Export Plug-In . SVG Version: 6.00 Build 0)  -->
<svg version="1.1" id="Layer_1" xmlns="http://www.w3.org/2000/svg" xmlns:xlink="http://www.w3.org/1999/xlink" x="0px" y="0px"
	 viewBox="0 0 841.89 595.28" style="enable-background:new 0 0 841.89 595.28;" xml:space="preserve">
<style type="text/css">
	.st0{fill:url(#SVGID_1_);}
	.st1{fill:#FFFFFF;}
</style>
<linearGradient id="SVGID_1_" gradientUnits="userSpaceOnUse" x1="234.8568" y1="434.2347" x2="454.8335" y2="293.6649">
	<stop  offset="0" style="stop-color:#68ABDE"/>
	<stop  offset="0" style="stop-color:#63AAD4"/>
	<stop  offset="0" style="stop-color:#59A6B7"/>
	<stop  offset="0" style="stop-color:#469D88"/>
	<stop  offset="0" style="stop-color:#2E9147"/>
	<stop  offset="0" style="stop-color:#298C43"/>
	<stop  offset="0" style="stop-color:#298C43"/>
	<stop  offset="1" style="stop-color:#51B748"/>
</linearGradient>
<path class="st0" d="M500.42,453.19H330.89c-27.46,0-49.72-22.26-49.72-49.72V233.94c0-27.46,22.26-49.72,49.72-49.72h169.53
	c27.46,0,49.72,22.26,49.72,49.72v169.53C550.14,430.93,527.88,453.19,500.42,453.19z"/>
<g>
	<path class="st1" d="M345.3,309c-1.55,0.36-3.19,0.66-4.92,0.9c-1.73,0.24-3.31,0.36-4.74,0.36c-2.57,0-4.69-0.25-6.35-0.76
		c-1.67-0.51-3.01-1.31-4.03-2.41c-1.02-1.1-1.75-2.56-2.19-4.38c-0.45-1.82-0.67-4.09-0.67-6.83v-21.43h-7.25v-9.58h7.25v-13.52
		l12.26-3.31v16.83h10.29v9.58h-10.29v19.2c0,2.37,0.35,4.02,1.06,4.93c0.71,0.92,1.95,1.38,3.73,1.38c0.83,0,1.67-0.06,2.53-0.18
		c0.86-0.12,1.7-0.27,2.53-0.45L345.3,309z"/>
	<path class="st1" d="M390.85,283.06c0,1.43-0.04,2.81-0.13,4.12c-0.09,1.31-0.16,2.27-0.22,2.86h-27.12
		c0.12,7.16,3.9,10.74,11.33,10.74c2.14,0,4.34-0.19,6.6-0.58c2.26-0.39,4.52-0.94,6.78-1.66l1.25,9.04
		c-2.57,0.9-5.24,1.58-8.01,2.06c-2.77,0.48-5.47,0.72-8.1,0.72c-7.34,0-12.9-1.86-16.69-5.59c-3.79-3.73-5.68-9.47-5.68-17.23
		c0-3.34,0.48-6.44,1.43-9.31c0.95-2.86,2.37-5.37,4.25-7.52c1.88-2.15,4.15-3.82,6.8-5.01c2.65-1.19,5.62-1.79,8.91-1.79
		c3.16,0,5.94,0.48,8.32,1.43c2.39,0.96,4.34,2.3,5.86,4.03c1.52,1.73,2.64,3.76,3.36,6.09
		C390.5,277.78,390.85,280.31,390.85,283.06z M378.77,281.98c0.06-2.95-0.53-5.2-1.78-6.73s-3.03-2.31-5.34-2.31
		c-2.25,0-4.12,0.8-5.61,2.4s-2.34,3.81-2.58,6.64H378.77z"/>
	<path class="st1" d="M437.04,283.06c0,1.43-0.04,2.81-0.13,4.12c-0.09,1.31-0.16,2.27-0.22,2.86h-27.12
		c0.12,7.16,3.9,10.74,11.33,10.74c2.14,0,4.34-0.19,6.6-0.58c2.26-0.39,4.52-0.94,6.78-1.66l1.25,9.04
		c-2.57,0.9-5.24,1.58-8.01,2.06c-2.77,0.48-5.47,0.72-8.1,0.72c-7.34,0-12.9-1.86-16.69-5.59c-3.79-3.73-5.68-9.47-5.68-17.23
		c0-3.34,0.48-6.44,1.43-9.31c0.95-2.86,2.37-5.37,4.25-7.52c1.88-2.15,4.15-3.82,6.8-5.01c2.65-1.19,5.62-1.79,8.91-1.79
		c3.16,0,5.94,0.48,8.32,1.43c2.39,0.96,4.34,2.3,5.86,4.03c1.52,1.73,2.64,3.76,3.36,6.09
		C436.68,277.78,437.04,280.31,437.04,283.06z M424.95,281.98c0.06-2.95-0.53-5.2-1.78-6.73c-1.25-1.54-3.02-2.31-5.34-2.31
		c-2.25,0-4.12,0.8-5.61,2.4s-2.34,3.81-2.58,6.64H424.95z"/>
	<path class="st1" d="M473.2,309.37v-28.19c0-2.33-0.37-4.07-1.11-5.24s-2-1.75-3.78-1.75c-1.31,0-2.55,0.34-3.74,1.03
		c-1.19,0.69-2.24,1.67-3.16,2.95c-0.92,1.28-1.63,2.76-2.14,4.43c-0.5,1.67-0.76,3.46-0.76,5.37v21.39h-12.26v-44.48h11.55
		c0,1.07-0.06,2.34-0.18,3.8c-0.12,1.46-0.27,2.73-0.45,3.8h0.18c1.43-2.62,3.39-4.71,5.89-6.27c2.5-1.55,5.47-2.33,8.92-2.33
		c2.32,0,4.33,0.33,6.02,0.98c1.7,0.66,3.08,1.63,4.15,2.91c1.07,1.28,1.86,2.82,2.37,4.61c0.5,1.79,0.76,3.85,0.76,6.18v30.79
		H473.2z"/>
</g>
<g>
	<path class="st1" d="M349.01,384.61h-15.6l-19.09-60.42h13.21l10.48,35.44c0.62,2.09,1.25,4.34,1.87,6.76
		c0.62,2.42,1.14,4.64,1.53,6.67h0.17c0.51-2.51,1.05-4.92,1.62-7.25c0.57-2.33,1.16-4.44,1.79-6.35l10.65-35.26h12.19
		L349.01,384.61z"/>
	<path class="st1" d="M404.32,358.3c0,1.43-0.04,2.81-0.13,4.12c-0.08,1.31-0.16,2.27-0.21,2.86h-25.82
		c0.11,7.16,3.71,10.74,10.79,10.74c2.04,0,4.13-0.19,6.28-0.58c2.15-0.39,4.3-0.94,6.46-1.66l1.19,9.04
		c-2.44,0.9-4.99,1.58-7.63,2.06c-2.64,0.48-5.21,0.72-7.71,0.72c-6.99,0-12.29-1.86-15.89-5.59c-3.61-3.73-5.41-9.47-5.41-17.23
		c0-3.34,0.45-6.44,1.36-9.31c0.91-2.86,2.26-5.37,4.05-7.52c1.79-2.15,3.95-3.82,6.48-5.01c2.53-1.19,5.35-1.79,8.48-1.79
		c3.01,0,5.65,0.48,7.92,1.43c2.27,0.96,4.13,2.3,5.58,4.03c1.45,1.73,2.51,3.76,3.2,6.09S404.32,355.56,404.32,358.3z
		 M392.81,357.23c0.06-2.95-0.51-5.2-1.7-6.73s-2.88-2.31-5.08-2.31c-2.15,0-3.93,0.8-5.34,2.4c-1.41,1.6-2.23,3.81-2.46,6.64
		H392.81z"/>
	<path class="st1" d="M436.11,351.23c-7.56-1.73-11.34,3.31-11.34,15.13v18.26H413.1v-44.48h10.99c0,1.07-0.06,2.4-0.17,3.98
		c-0.11,1.58-0.29,3.09-0.51,4.52l0.08,0.09c0.57-1.49,1.25-2.83,2.04-4.03c0.79-1.19,1.72-2.22,2.79-3.09
		c1.07-0.86,2.31-1.52,3.72-1.97c1.41-0.45,2.96-0.61,4.66-0.49L436.11,351.23z"/>
	<path class="st1" d="M470.02,370.83c0,2.09-0.4,4.03-1.19,5.82c-0.8,1.79-1.97,3.36-3.54,4.7c-1.56,1.34-3.52,2.39-5.88,3.13
		c-2.36,0.75-5.04,1.12-8.05,1.12c-1.7,0-3.4-0.1-5.07-0.31c-1.68-0.21-3.22-0.49-4.64-0.85l0.6-10.11c1.36,0.54,2.91,0.97,4.64,1.3
		c1.73,0.33,3.37,0.49,4.9,0.49c1.93,0,3.42-0.37,4.47-1.12c1.05-0.75,1.58-1.75,1.58-3c0-1.07-0.37-1.97-1.11-2.68
		c-0.74-0.72-1.76-1.36-3.07-1.92c-1.31-0.57-2.76-1.19-4.35-1.88c-1.59-0.68-3-1.52-4.22-2.51s-2.21-2.27-2.98-3.85
		c-0.77-1.58-1.15-3.54-1.15-5.86c0-1.97,0.37-3.8,1.11-5.5c0.74-1.7,1.86-3.21,3.37-4.52c1.5-1.31,3.39-2.33,5.67-3.04
		c2.27-0.72,4.91-1.07,7.92-1.07c1.31,0,2.63,0.06,3.96,0.18c1.33,0.12,2.63,0.3,3.88,0.54l-0.6,9.67c-1.2-0.36-2.46-0.66-3.77-0.9
		c-1.32-0.24-2.63-0.36-3.94-0.36c-1.83,0-3.23,0.36-4.2,1.07c-0.97,0.72-1.46,1.67-1.46,2.86c0,1.02,0.37,1.87,1.11,2.55
		c0.74,0.69,1.77,1.31,3.08,1.88c1.31,0.57,2.78,1.22,4.41,1.97c1.63,0.75,3.05,1.6,4.28,2.55c1.23,0.96,2.24,2.22,3.04,3.8
		S470.02,368.5,470.02,370.83z"/>
	<path class="st1" d="M513.91,358.3c0,1.43-0.04,2.81-0.13,4.12c-0.08,1.31-0.16,2.27-0.21,2.86h-25.82
		c0.11,7.16,3.71,10.74,10.79,10.74c2.04,0,4.13-0.19,6.28-0.58c2.15-0.39,4.3-0.94,6.46-1.66l1.19,9.04
		c-2.44,0.9-4.99,1.58-7.63,2.06c-2.64,0.48-5.21,0.72-7.71,0.72c-6.99,0-12.29-1.86-15.89-5.59c-3.61-3.73-5.41-9.47-5.41-17.23
		c0-3.34,0.45-6.44,1.36-9.31c0.91-2.86,2.26-5.37,4.05-7.52c1.79-2.15,3.95-3.82,6.48-5.01c2.53-1.19,5.35-1.79,8.48-1.79
		c3.01,0,5.65,0.48,7.92,1.43c2.27,0.96,4.13,2.3,5.58,4.03c1.45,1.73,2.51,3.76,3.2,6.09S513.91,355.56,513.91,358.3z
		 M502.41,357.23c0.06-2.95-0.51-5.2-1.7-6.73s-2.88-2.31-5.08-2.31c-2.15,0-3.93,0.8-5.34,2.4c-1.41,1.6-2.23,3.81-2.46,6.64
		H502.41z"/>
</g>
</svg>
