<svg xmlns="http://www.w3.org/2000/svg" xmlns:xlink="http://www.w3.org/1999/xlink" width="1080" zoomAndPan="magnify" viewBox="0 0 810 809.999993" height="1080" preserveAspectRatio="xMidYMid meet" version="1.0"><defs><clipPath id="fab97ca85d"><path d="M 62.164062 62.164062 L 747.664062 62.164062 L 747.664062 747.664062 L 62.164062 747.664062 Z M 62.164062 62.164062 " clip-rule="nonzero"/></clipPath></defs><rect x="-81" width="972" fill="#ffffff" y="-80.999999" height="971.999992" fill-opacity="1"/><rect x="-81" width="972" fill="#ffffff" y="-80.999999" height="971.999992" fill-opacity="1"/><g clip-path="url(#fab97ca85d)"><path fill="#3a3e2e" d="M 211.328125 598.625 L 324.769531 598.625 L 404.976562 678.835938 L 485.1875 598.625 L 598.621094 598.625 L 598.621094 485.183594 L 678.832031 404.976562 L 598.621094 324.765625 L 598.621094 211.328125 L 485.1875 211.328125 L 404.976562 131.117188 L 324.769531 211.328125 L 211.328125 211.328125 L 211.328125 324.761719 L 131.117188 404.976562 L 211.328125 485.191406 Z M 404.976562 747.808594 L 304.5625 647.394531 L 162.554688 647.394531 L 162.554688 505.390625 L 62.140625 404.976562 L 162.554688 304.5625 L 162.554688 162.554688 L 304.5625 162.554688 L 404.976562 62.140625 L 505.390625 162.554688 L 647.394531 162.554688 L 647.394531 304.5625 L 747.808594 404.976562 L 647.394531 505.390625 L 647.394531 647.394531 L 505.390625 647.394531 L 404.976562 747.808594 " fill-opacity="1" fill-rule="nonzero"/></g><path fill="#7b8460" d="M 301.113281 508.839844 L 361.953125 508.839844 L 404.976562 551.855469 L 447.996094 508.839844 L 508.832031 508.839844 L 508.832031 447.996094 L 551.855469 404.976562 L 508.832031 361.957031 L 508.832031 301.113281 L 447.996094 301.113281 L 404.976562 258.097656 L 361.953125 301.113281 L 301.113281 301.113281 L 301.113281 361.953125 L 258.089844 404.976562 L 301.113281 448 Z M 404.976562 610.769531 L 344.699219 550.492188 L 259.460938 550.492188 L 259.460938 465.25 L 199.183594 404.976562 L 259.460938 344.703125 L 259.460938 259.460938 L 344.699219 259.460938 L 404.976562 199.1875 L 465.25 259.460938 L 550.488281 259.460938 L 550.488281 344.707031 L 610.769531 404.976562 L 550.488281 465.246094 L 550.488281 550.492188 L 465.25 550.492188 L 404.976562 610.769531 " fill-opacity="1" fill-rule="nonzero"/></svg>